<?xml version="1.0" standalone="no"?>
<!DOCTYPE svg PUBLIC "-//W3C//DTD SVG 20010904//EN"
 "http://www.w3.org/TR/2001/REC-SVG-20010904/DTD/svg10.dtd">
<svg version="1.0" xmlns="http://www.w3.org/2000/svg"
 width="1017.000000pt" height="1280.000000pt" viewBox="0 0 1017.000000 1280.000000"
 preserveAspectRatio="xMidYMid meet">
<metadata>
Created by potrace 1.15, written by Peter Selinger 2001-2017
</metadata>
<g transform="translate(0.000000,1280.000000) scale(0.100000,-0.100000)"
fill="#000000" stroke="none">
<path d="M4725 12790 c-631 -37 -1110 -181 -1141 -344 -9 -52 -1 -73 66 -166
l60 -85 0 -1282 0 -1283 -501 -1127 c-1654 -3721 -3041 -6850 -3072 -6929 -94
-238 -131 -415 -131 -619 0 -125 4 -163 22 -229 118 -415 492 -623 1262 -703
165 -17 374 -18 3795 -18 3421 0 3630 1 3795 18 682 71 1050 242 1210 564 57
116 74 201 74 368 0 204 -37 381 -131 619 -31 79 -1418 3208 -3072 6929 l-501
1127 0 1283 0 1282 60 84 c89 125 90 172 3 252 -205 189 -1007 304 -1798 259z
m701 -61 c213 -12 443 -40 614 -75 288 -58 490 -156 490 -238 0 -35 -90 -110
-173 -144 -653 -272 -2404 -213 -2689 91 -36 37 -35 68 2 110 160 182 981 302
1756 256z m976 -1803 l-2 -1304 54 -124 c29 -67 818 -1842 1751 -3943 934
-2101 1714 -3861 1735 -3910 60 -142 106 -282 136 -411 35 -151 40 -377 11
-484 -113 -423 -531 -626 -1397 -680 -227 -14 -6983 -14 -7210 0 -772 48
-1184 214 -1344 542 -58 119 -71 182 -70 353 1 169 25 300 91 489 50 144 -70
-128 1849 4192 l1764 3972 0 1301 c0 715 2 1301 5 1301 2 0 26 -9 53 -19 216
-85 595 -144 1032 -160 562 -20 1108 35 1435 144 63 21 110 40 110 45 0 0 -1
-587 -3 -1304z"/>
<path d="M4670 12664 c-25 -2 -108 -8 -185 -14 -577 -45 -875 -153 -769 -279
75 -90 324 -148 824 -193 218 -19 915 -16 1145 5 531 50 785 126 785 233 0 67
-85 118 -270 160 -287 66 -515 85 -1045 89 -242 1 -460 1 -485 -1z m1070 -78
c344 -36 567 -84 642 -137 51 -37 33 -58 -87 -102 -119 -42 -358 -82 -665
-109 -191 -17 -896 -17 -1090 0 -422 37 -718 99 -775 162 -15 16 -14 19 14 43
77 64 402 127 807 157 191 13 984 4 1154 -14z"/>
<path d="M6305 8887 c-186 -69 -537 -142 -788 -162 -77 -7 -78 -7 -75 -33 l3
-27 80 3 c182 7 524 73 735 141 119 39 120 39 106 71 l-11 26 -50 -19z"/>
<path d="M6650 7762 c-161 -59 -609 -152 -737 -152 -22 0 -55 -3 -72 -6 -26
-5 -31 -11 -31 -35 l0 -28 68 5 c265 21 611 92 805 164 58 22 67 34 45 61 -12
14 -20 13 -78 -9z"/>
<path d="M6965 6630 c-196 -67 -576 -140 -725 -140 -60 0 -60 0 -60 -30 0 -30
0 -30 60 -30 81 0 315 35 485 72 117 25 369 99 382 112 6 6 -16 56 -24 54 -5
0 -57 -18 -118 -38z"/>
<path d="M7400 5533 c-141 -63 -642 -163 -812 -163 -49 0 -56 -7 -42 -44 8
-20 52 -21 204 -1 224 28 420 70 600 127 130 41 132 43 118 73 -13 29 -20 29
-68 8z"/>
<path d="M7723 4400 c-175 -61 -454 -119 -685 -142 l-128 -12 0 -28 c0 -34 1
-34 185 -13 215 24 496 84 656 140 85 29 93 36 84 64 -8 26 -11 26 -112 -9z"/>
<path d="M8168 3309 c-48 -27 -277 -89 -458 -124 -110 -21 -363 -54 -417 -55
-8 0 -13 -13 -13 -30 0 -17 5 -30 13 -30 45 0 301 33 397 50 181 33 416 95
493 131 21 9 26 17 21 33 -9 31 -17 36 -36 25z"/>
<path d="M8530 2190 c-8 -6 -51 -21 -95 -35 -224 -68 -456 -114 -683 -134 -57
-5 -106 -12 -108 -14 -3 -3 -2 -17 2 -31 5 -23 10 -26 38 -22 17 3 65 8 106
11 188 15 516 83 694 144 49 16 90 32 92 34 6 6 -17 57 -25 57 -3 0 -13 -5
-21 -10z"/>
</g>
</svg>
